<svg width="20" height="20" viewBox="0 0 24 24" fill="none" xmlns="http://www.w3.org/2000/svg">
  <path d="M15 7C15 8.65685 13.6569 10 12 10C10.3431 10 9 8.65685 9 7C9 5.34315 10.3431 4 12 4C13.6569 4 15 5.34315 15 7Z" stroke="#0F172A" stroke-width="1.8"/>
  <path d="M19 9C19 10.1046 18.1046 11 17 11C15.8954 11 15 10.1046 15 9C15 7.89543 15.8954 7 17 7C18.1046 7 19 7.89543 19 9Z" stroke="#0F172A" stroke-width="1.8"/>
  <path d="M9 9C9 10.1046 8.10457 11 7 11C5.89543 11 5 10.1046 5 9C5 7.89543 5.89543 7 7 7C8.10457 7 9 7.89543 9 9Z" stroke="#0F172A" stroke-width="1.8"/>
  <path d="M5 18.5C5.40684 16.4666 7.20408 15 9.33333 15H14.6667C16.7959 15 18.5932 16.4666 19 18.5" stroke="#0F172A" stroke-width="1.8" stroke-linecap="round"/>
</svg>
